<svg xmlns="http://www.w3.org/2000/svg" version="1.1" viewBox="-5.0 -10.0 110.0 135.0">
 <path d="m93.379 52.672-27.852 13.539-12.809 29.5c-0.30078 0.69141-0.85156 1.2383-1.5391 1.5391-1.5 0.66016-3.25-0.03125-3.9102-1.5391l-12.801-29.5-27.848-13.539c-0.60156-0.28906-1.0781-0.76953-1.3711-1.3711-0.71875-1.4805-0.10156-3.25 1.3711-3.9688l27.84-13.539 12.809-29.504c0.30078-0.69141 0.85156-1.2383 1.5391-1.5391 1.5117-0.66016 3.2617 0.03125 3.9102 1.5391l12.809 29.5 27.84 13.539h0.011718c0.60156 0.28906 1.0781 0.76953 1.3711 1.3711 0.71875 1.4727 0.10156 3.25-1.3711 3.9727z" fill='white'/>
</svg>